<svg width="327" height="324" viewBox="0 0 327 324" fill="none" xmlns="http://www.w3.org/2000/svg">
<g style="mix-blend-mode:luminosity" filter="url(#filter0_i_935_11312)">
<rect width="324" height="324" rx="13.8857" fill="#111111"/>
<rect x="0.578571" y="0.578571" width="322.843" height="322.843" rx="13.3071" stroke="#343434" stroke-width="1.15714"/>
</g>
<g clip-path="url(#clip0_935_11312)">
<g filter="url(#filter1_d_935_11312)">
<g clip-path="url(#clip1_935_11312)">
<rect x="72.8984" y="72.8984" width="178.2" height="178.2" rx="31.2429" fill="url(#paint0_linear_935_11312)"/>
<g filter="url(#filter2_f_935_11312)">
<rect x="172.414" y="42.8125" width="94.8857" height="121.5" fill="url(#paint1_linear_935_11312)"/>
</g>
<g filter="url(#filter3_f_935_11312)">
<rect x="49.7578" y="146.957" width="94.8857" height="121.5" fill="url(#paint2_linear_935_11312)"/>
</g>
<rect x="90.2578" y="89.0977" width="144.643" height="144.643" rx="16.2" fill="#202026"/>
<rect x="86.7864" y="85.6262" width="151.586" height="151.586" rx="19.6714" stroke="black" stroke-opacity="0.2" stroke-width="6.94286"/>
<g clip-path="url(#clip2_935_11312)">
<g filter="url(#filter4_d_935_11312)">
<path d="M160.957 135.855C160.662 135.856 160.373 135.936 160.12 136.088C159.868 136.24 159.661 136.458 159.522 136.718L146.504 161.128C146.372 161.376 146.306 161.654 146.313 161.935C146.32 162.216 146.4 162.49 146.544 162.731C146.689 162.972 146.893 163.172 147.138 163.31C147.382 163.449 147.658 163.522 147.94 163.522H155.807L152.841 182.801C152.787 183.153 152.85 183.513 153.021 183.826C153.192 184.138 153.46 184.386 153.785 184.532C154.11 184.677 154.474 184.712 154.821 184.631C155.168 184.549 155.478 184.356 155.705 184.082L178.488 156.416C178.683 156.178 178.807 155.889 178.845 155.583C178.883 155.277 178.834 154.967 178.702 154.688C178.571 154.41 178.363 154.174 178.103 154.009C177.843 153.843 177.541 153.755 177.233 153.755H166.954L175.404 138.262C175.539 138.014 175.608 137.736 175.603 137.454C175.597 137.171 175.519 136.895 175.375 136.653C175.231 136.41 175.027 136.209 174.782 136.069C174.536 135.929 174.259 135.856 173.977 135.855H160.957Z" fill="url(#paint3_linear_935_11312)"/>
<path d="M159.624 136.772L159.624 136.772L146.606 161.182L146.606 161.183C146.483 161.413 146.422 161.671 146.429 161.932C146.435 162.193 146.509 162.448 146.643 162.672L146.544 162.731L146.643 162.672C146.778 162.896 146.968 163.081 147.195 163.21C147.422 163.338 147.678 163.406 147.94 163.406H155.807H155.942L155.922 163.539L152.955 182.819L159.624 136.772ZM159.624 136.772C159.753 136.53 159.945 136.328 160.18 136.187C160.415 136.046 160.683 135.971 160.957 135.971L173.977 135.971C174.239 135.971 174.496 136.04 174.724 136.17C174.952 136.299 175.142 136.486 175.276 136.712C175.409 136.937 175.482 137.194 175.487 137.456C175.491 137.718 175.428 137.977 175.302 138.207L175.302 138.207L166.852 153.7L166.759 153.871M159.624 136.772L166.759 153.871M166.759 153.871H166.954M166.759 153.871H166.954M166.954 153.871H177.233C177.519 153.871 177.799 153.953 178.041 154.106C178.282 154.26 178.476 154.479 178.598 154.738C178.72 154.996 178.766 155.285 178.73 155.569C178.695 155.853 178.58 156.121 178.398 156.342L166.954 153.871ZM153.123 183.77C152.964 183.48 152.905 183.146 152.955 182.819L155.615 184.008C155.405 184.263 155.116 184.442 154.794 184.518C154.472 184.593 154.134 184.561 153.832 184.426C153.53 184.291 153.281 184.061 153.123 183.77ZM178.398 156.342L155.615 184.008L178.398 156.342Z" stroke="url(#paint4_linear_935_11312)" stroke-width="0.231429"/>
</g>
</g>
</g>
</g>
<g filter="url(#filter5_f_935_11312)">
<path d="M236.055 114.692L351.769 10.4141V307.8L236.055 220.901V114.692Z" fill="url(#paint5_linear_935_11312)" fill-opacity="0.13"/>
</g>
<g style="mix-blend-mode:luminosity">
<line y1="163.155" x2="72.9" y2="163.155" stroke="url(#paint6_linear_935_11312)" stroke-width="2.31429"/>
</g>
<line opacity="0.8" x1="251.102" y1="163.155" x2="324.002" y2="163.155" stroke="url(#paint7_linear_935_11312)" stroke-width="2.31429"/>
</g>
<g style="mix-blend-mode:hue">
<rect width="326.314" height="324" fill="#101235"/>
</g>
<defs>
<filter id="filter0_i_935_11312" x="0" y="0" width="324" height="324" filterUnits="userSpaceOnUse" color-interpolation-filters="sRGB">
<feFlood flood-opacity="0" result="BackgroundImageFix"/>
<feBlend mode="normal" in="SourceGraphic" in2="BackgroundImageFix" result="shape"/>
<feColorMatrix in="SourceAlpha" type="matrix" values="0 0 0 0 0 0 0 0 0 0 0 0 0 0 0 0 0 0 127 0" result="hardAlpha"/>
<feMorphology radius="4.62857" operator="erode" in="SourceAlpha" result="effect1_innerShadow_935_11312"/>
<feOffset/>
<feGaussianBlur stdDeviation="18.6879"/>
<feComposite in2="hardAlpha" operator="arithmetic" k2="-1" k3="1"/>
<feColorMatrix type="matrix" values="0 0 0 0 1 0 0 0 0 1 0 0 0 0 1 0 0 0 0.11 0"/>
<feBlend mode="normal" in2="shape" result="effect1_innerShadow_935_11312"/>
</filter>
<filter id="filter1_d_935_11312" x="52.7642" y="57.3927" width="218.472" height="218.468" filterUnits="userSpaceOnUse" color-interpolation-filters="sRGB">
<feFlood flood-opacity="0" result="BackgroundImageFix"/>
<feColorMatrix in="SourceAlpha" type="matrix" values="0 0 0 0 0 0 0 0 0 0 0 0 0 0 0 0 0 0 127 0" result="hardAlpha"/>
<feOffset dy="4.62857"/>
<feGaussianBlur stdDeviation="10.0671"/>
<feComposite in2="hardAlpha" operator="out"/>
<feColorMatrix type="matrix" values="0 0 0 0 1 0 0 0 0 1 0 0 0 0 1 0 0 0 0.25 0"/>
<feBlend mode="normal" in2="BackgroundImageFix" result="effect1_dropShadow_935_11312"/>
<feBlend mode="normal" in="SourceGraphic" in2="effect1_dropShadow_935_11312" result="shape"/>
</filter>
<filter id="filter2_f_935_11312" x="102.754" y="-26.8475" width="234.203" height="260.82" filterUnits="userSpaceOnUse" color-interpolation-filters="sRGB">
<feFlood flood-opacity="0" result="BackgroundImageFix"/>
<feBlend mode="normal" in="SourceGraphic" in2="BackgroundImageFix" result="shape"/>
<feGaussianBlur stdDeviation="34.83" result="effect1_foregroundBlur_935_11312"/>
</filter>
<filter id="filter3_f_935_11312" x="-19.9022" y="77.297" width="234.203" height="260.82" filterUnits="userSpaceOnUse" color-interpolation-filters="sRGB">
<feFlood flood-opacity="0" result="BackgroundImageFix"/>
<feBlend mode="normal" in="SourceGraphic" in2="BackgroundImageFix" result="shape"/>
<feGaussianBlur stdDeviation="34.83" result="effect1_foregroundBlur_935_11312"/>
</filter>
<filter id="filter4_d_935_11312" x="141.684" y="135.855" width="41.804" height="58.0735" filterUnits="userSpaceOnUse" color-interpolation-filters="sRGB">
<feFlood flood-opacity="0" result="BackgroundImageFix"/>
<feColorMatrix in="SourceAlpha" type="matrix" values="0 0 0 0 0 0 0 0 0 0 0 0 0 0 0 0 0 0 127 0" result="hardAlpha"/>
<feOffset dy="4.62857"/>
<feGaussianBlur stdDeviation="2.31429"/>
<feComposite in2="hardAlpha" operator="out"/>
<feColorMatrix type="matrix" values="0 0 0 0 0 0 0 0 0 0 0 0 0 0 0 0 0 0 0.25 0"/>
<feBlend mode="normal" in2="BackgroundImageFix" result="effect1_dropShadow_935_11312"/>
<feBlend mode="normal" in="SourceGraphic" in2="effect1_dropShadow_935_11312" result="shape"/>
</filter>
<filter id="filter5_f_935_11312" x="214.532" y="-11.1088" width="158.757" height="340.432" filterUnits="userSpaceOnUse" color-interpolation-filters="sRGB">
<feFlood flood-opacity="0" result="BackgroundImageFix"/>
<feBlend mode="normal" in="SourceGraphic" in2="BackgroundImageFix" result="shape"/>
<feGaussianBlur stdDeviation="10.7614" result="effect1_foregroundBlur_935_11312"/>
</filter>
<linearGradient id="paint0_linear_935_11312" x1="251.098" y1="251.098" x2="66.5758" y2="96.1515" gradientUnits="userSpaceOnUse">
<stop stop-color="#1F1C1C"/>
<stop offset="1" stop-color="#5B5B5B"/>
</linearGradient>
<linearGradient id="paint1_linear_935_11312" x1="219.857" y1="42.8125" x2="219.857" y2="164.312" gradientUnits="userSpaceOnUse">
<stop stop-color="#BE6C2A"/>
<stop offset="0.3" stop-color="#B1582D"/>
<stop offset="0.645" stop-color="#CC2D05"/>
<stop offset="1" stop-color="#D11CA5"/>
</linearGradient>
<linearGradient id="paint2_linear_935_11312" x1="97.2007" y1="146.957" x2="97.2007" y2="268.457" gradientUnits="userSpaceOnUse">
<stop stop-color="#BE6C2A"/>
<stop offset="0.3" stop-color="#B1582D"/>
<stop offset="0.645" stop-color="#CC2D05"/>
<stop offset="1" stop-color="#D11CA5"/>
</linearGradient>
<linearGradient id="paint3_linear_935_11312" x1="162.585" y1="135.855" x2="162.585" y2="184.674" gradientUnits="userSpaceOnUse">
<stop stop-color="#8F8F8F"/>
<stop offset="1" stop-color="#555555"/>
</linearGradient>
<linearGradient id="paint4_linear_935_11312" x1="162.585" y1="135.855" x2="162.585" y2="184.674" gradientUnits="userSpaceOnUse">
<stop stop-color="#D92121"/>
<stop offset="0.375" stop-color="#D17474"/>
<stop offset="0.965" stop-color="#8A8A8A"/>
</linearGradient>
<linearGradient id="paint5_linear_935_11312" x1="299.801" y1="159.107" x2="272.778" y2="159.107" gradientUnits="userSpaceOnUse">
<stop stop-color="#D9D9D9" stop-opacity="0"/>
<stop offset="0.0001" stop-color="#D5507A" stop-opacity="0.63"/>
<stop offset="1" stop-color="#D30043"/>
</linearGradient>
<linearGradient id="paint6_linear_935_11312" x1="4.05" y1="124.313" x2="62.5054" y2="195.364" gradientUnits="userSpaceOnUse">
<stop stop-color="#383838"/>
<stop offset="1" stop-color="#3F3C3C"/>
</linearGradient>
<linearGradient id="paint7_linear_935_11312" x1="255.152" y1="124.313" x2="313.607" y2="195.364" gradientUnits="userSpaceOnUse">
<stop stop-color="#F4895D"/>
<stop offset="0.335" stop-color="#EF6D41"/>
<stop offset="0.655" stop-color="#DE453A"/>
<stop offset="0.95" stop-color="#EB0F85"/>
</linearGradient>
<clipPath id="clip0_935_11312">
<rect width="324" height="324" rx="13.8857" fill="white"/>
</clipPath>
<clipPath id="clip1_935_11312">
<rect x="72.8984" y="72.8984" width="178.2" height="178.2" rx="31.2429" fill="white"/>
</clipPath>
<clipPath id="clip2_935_11312">
<rect width="52.0714" height="52.0714" fill="white" transform="translate(136.547 134.227)"/>
</clipPath>
</defs>
</svg>
