<svg width="26" height="26" viewBox="0 0 26 26" fill="none" xmlns="http://www.w3.org/2000/svg">
<path fill-rule="evenodd" clip-rule="evenodd" d="M21.9668 21.8503H18.2895V16.0942C18.2895 14.7216 18.2639 12.9574 16.3765 12.9574C14.4644 12.9574 14.1719 14.454 14.1719 15.9967V21.8503H10.4973V10.0148H14.0214V11.6328H14.0727C14.5644 10.7032 15.7634 9.72232 17.5532 9.72232C21.2792 9.72232 21.9659 12.1715 21.9659 15.3596L21.9668 21.8503ZM6.34884 8.39852C6.06511 8.40448 5.78306 8.35378 5.51917 8.24938C5.25528 8.14499 5.01487 7.98901 4.81201 7.79056C4.60915 7.59212 4.44792 7.3552 4.33775 7.09367C4.22757 6.83215 4.17068 6.55127 4.1704 6.26748C4.17011 5.9837 4.22644 5.70271 4.33609 5.44097C4.44574 5.17922 4.6065 4.94198 4.80896 4.74312C5.01142 4.54427 5.25152 4.3878 5.51519 4.28289C5.77887 4.17797 6.06083 4.1267 6.34456 4.13209C6.91044 4.13152 7.45336 4.35577 7.8539 4.75551C8.25444 5.15524 8.47977 5.69772 8.48034 6.26359C8.48091 6.82947 8.25666 7.3724 7.85692 7.77293C7.45719 8.17347 6.91471 8.39881 6.34884 8.39937V8.39852ZM4.5051 21.8503H8.1883V10.0148H4.50595L4.5051 21.8503ZM23.7977 0.718262H2.66136C1.65226 0.718262 0.833008 1.5187 0.833008 2.50642V23.7282C0.833008 24.716 1.65311 25.5181 2.66136 25.5181H23.7977C24.8093 25.5181 25.6329 24.716 25.6329 23.7282V2.50642C25.6329 1.5187 24.8093 0.718262 23.7977 0.718262Z" fill="white"/>
</svg>
