<svg width="122" height="61" viewBox="0 0 122 61" fill="none" xmlns="http://www.w3.org/2000/svg">
<rect x="0.435714" y="0.435714" width="120.257" height="60.1286" rx="4.79286" fill="#010C1D"/>
<rect x="0.435714" y="0.435714" width="120.257" height="60.1286" rx="4.79286" stroke="#102246" stroke-width="0.871429"/>
<g clip-path="url(#clip0_757_1636)">
<path d="M71.546 31.8669C72.2292 32.0355 72.9716 32.1204 73.7733 32.1204C74.575 32.1204 75.3255 32.0355 75.9796 31.8669C76.6349 31.6984 77.1903 31.4554 77.648 31.138C78.1058 30.8207 78.4532 30.4266 78.6937 29.9546C78.9331 29.4826 79.0527 28.9444 79.0527 28.3387C79.0527 27.4517 78.8308 26.7577 78.387 26.2578C77.9432 25.7579 77.3134 25.3639 76.4967 25.0744C75.6799 24.7861 74.7155 24.5292 73.6036 24.3036C72.4918 24.0781 71.5867 23.8421 70.8896 23.5957C70.1925 23.3492 69.6824 23.0179 69.3582 22.6029C69.0341 22.1879 68.8726 21.6206 68.8726 20.9022C68.8726 19.8175 69.256 18.948 70.024 18.2923C70.7908 17.6378 72.027 17.31 73.7303 17.31C74.1811 17.31 74.5924 17.3379 74.9653 17.3949C75.3383 17.4518 75.6903 17.5425 76.0215 17.6692C76.3514 17.7959 76.6686 17.9691 76.9719 18.1865C77.2739 18.4051 77.5737 18.6759 77.87 19.0003L78.1442 18.705C77.7503 18.2679 77.3309 17.9203 76.8882 17.6588C76.4444 17.3984 75.9587 17.2077 75.4312 17.088C74.9038 16.9682 74.3228 16.9089 73.6896 16.9089C72.6335 16.9089 71.711 17.0647 70.9233 17.3739C70.1344 17.6843 69.5256 18.1377 69.0968 18.7364C68.6669 19.3351 68.4532 20.071 68.4532 20.944C68.4532 21.817 68.6542 22.4262 69.055 22.8982C69.4558 23.3702 70.0437 23.7363 70.8187 23.9967C71.5925 24.2571 72.5289 24.4931 73.6269 24.7047C74.7806 24.9302 75.7275 25.1872 76.4676 25.4755C77.2065 25.7649 77.7526 26.1381 78.1047 26.595C78.4567 27.053 78.6321 27.6552 78.6321 28.4015C78.6321 29.514 78.1988 30.3522 77.3332 30.916C76.4676 31.4798 75.2883 31.7611 73.7954 31.7611C73.2319 31.7611 72.6974 31.7193 72.1908 31.6344C71.6843 31.5496 71.2021 31.4159 70.7443 31.2334C70.2866 31.0508 69.8532 30.8183 69.4454 30.5359C69.0364 30.2545 68.6425 29.9162 68.2626 29.5221L67.9454 29.7965C68.4799 30.3173 69.0434 30.7509 69.6348 31.0962C70.2261 31.4415 70.8628 31.6984 71.546 31.8669Z" fill="#F2F2F3"/>
<path d="M73.7729 32.2133C72.9665 32.2133 72.209 32.1273 71.5224 31.9564C70.8346 31.7867 70.1827 31.524 69.5867 31.1752C68.9919 30.8288 68.4179 30.3859 67.8788 29.8616L67.8068 29.7907L68.2669 29.3919L68.3284 29.4559C68.7037 29.8453 69.0964 30.1824 69.4961 30.4579C69.8969 30.7346 70.328 30.966 70.7765 31.145C71.2249 31.3252 71.7059 31.4577 72.2032 31.5414C72.7028 31.6251 73.2373 31.667 73.7926 31.667C75.2589 31.667 76.4323 31.388 77.2793 30.8369C78.1135 30.294 78.5365 29.4745 78.5365 28.4015C78.5365 27.6796 78.3657 27.0913 78.0276 26.6519C77.6871 26.2101 77.1504 25.8428 76.4312 25.5615C75.6992 25.2755 74.7488 25.0186 73.6067 24.7954C72.5065 24.5838 71.5572 24.3443 70.7858 24.0851C69.9992 23.82 69.3915 23.4411 68.9814 22.9586C68.5666 22.4715 68.3575 21.7938 68.3575 20.944C68.3575 20.0942 68.5806 19.2932 69.0186 18.6817C69.4566 18.0714 70.0852 17.6018 70.8868 17.2867C71.6839 16.974 72.6261 16.8159 73.6881 16.8159C74.3247 16.8159 74.9173 16.8775 75.4506 16.9973C75.9862 17.1193 76.4858 17.3146 76.9343 17.5785C77.3827 17.8424 77.8126 18.2005 78.2123 18.6422L78.2692 18.7062L77.8684 19.1386L77.7998 19.0642C77.5094 18.7457 77.2119 18.4771 76.9168 18.2632C76.6217 18.0505 76.3092 17.8796 75.9885 17.7564C75.6655 17.6332 75.317 17.5425 74.9521 17.4867C74.585 17.432 74.1737 17.4041 73.731 17.4041C72.058 17.4041 70.8311 17.7273 70.0852 18.3644C69.3439 18.9968 68.9675 19.8512 68.9675 20.9021C68.9675 21.5962 69.1243 22.1495 69.4334 22.5459C69.7447 22.9447 70.2455 23.269 70.9217 23.5085C71.6141 23.7526 72.5239 23.9898 73.623 24.213C74.7326 24.4385 75.7108 24.6989 76.5288 24.9883C77.356 25.2801 78.0055 25.6882 78.4575 26.1974C78.9152 26.7123 79.1464 27.4343 79.1464 28.341C79.1464 28.9583 79.0221 29.5163 78.777 29.9999C78.5318 30.4835 78.1705 30.8927 77.7023 31.2171C77.2375 31.5391 76.6659 31.789 76.0036 31.9599C75.3437 32.1296 74.5943 32.2168 73.774 32.2168L73.7729 32.2133ZM68.0821 29.7988C68.5887 30.2824 69.1255 30.6905 69.6808 31.0136C70.2618 31.3531 70.8961 31.6088 71.5677 31.7739C72.2392 31.9401 72.9817 32.025 73.7729 32.025C74.5641 32.025 75.3123 31.9413 75.956 31.7739C76.5962 31.6088 77.1469 31.3682 77.5942 31.059C78.0369 30.7521 78.3784 30.3661 78.6097 29.9104C78.8409 29.4535 78.9582 28.9246 78.9582 28.3364C78.9582 27.4773 78.7421 26.7972 78.3157 26.3171C77.8847 25.8312 77.2619 25.4417 76.4649 25.1592C75.6551 24.8733 74.6849 24.6152 73.5835 24.392C72.4751 24.1676 71.5584 23.9281 70.8578 23.6805C70.1467 23.4294 69.6181 23.0853 69.2846 22.6564C68.95 22.2262 68.7792 21.6345 68.7792 20.8986C68.7792 19.7896 69.1777 18.8887 69.9632 18.2179C70.7439 17.5506 72.0115 17.2135 73.7299 17.2135C74.183 17.2135 74.6036 17.2426 74.9789 17.2984C75.3576 17.3553 75.7201 17.4495 76.0547 17.5785C76.3905 17.7076 76.717 17.8854 77.0261 18.1075C77.3084 18.3109 77.5919 18.5643 77.8696 18.8596L78.0171 18.7003C77.6465 18.3016 77.2514 17.9773 76.8402 17.7355C76.4079 17.4809 75.9269 17.2925 75.4099 17.1751C74.8906 17.0577 74.3108 16.9973 73.6892 16.9973C72.6505 16.9973 71.7315 17.1519 70.9565 17.4553C70.1886 17.7575 69.5879 18.2051 69.1719 18.7864C68.756 19.3665 68.5457 20.0907 68.5457 20.9405C68.5457 21.745 68.7409 22.382 69.1255 22.8342C69.5135 23.2911 70.0933 23.6515 70.8473 23.9049C71.6095 24.1618 72.5506 24.4001 73.6439 24.6094C74.7976 24.8337 75.7585 25.0953 76.5009 25.3848C77.2526 25.6789 77.8161 26.066 78.1774 26.5345C78.5411 27.0076 78.7247 27.6342 78.7247 28.398C78.7247 29.5396 78.2727 30.4114 77.3839 30.9904C76.5067 31.5612 75.2995 31.8506 73.7949 31.8506C73.2291 31.8506 72.6842 31.8076 72.1742 31.7228C71.6629 31.6367 71.1692 31.5007 70.7079 31.3159C70.2455 31.131 69.8028 30.8927 69.3904 30.6091C69.0023 30.3417 68.6201 30.0174 68.2552 29.6465L68.0821 29.7965V29.7988Z" fill="#F2F2F3"/>
<path d="M85.1565 31.5496C84.8184 31.7182 84.4036 31.8031 83.911 31.8031C83.545 31.8031 83.2139 31.6926 82.9187 31.4718C82.6236 31.2509 82.461 30.9347 82.4331 30.522V21.4707H85.0728V21.0476H82.4331V17.2229H82.0113V21.0476H80.4277V21.4707H82.0113V30.5185C82.0113 30.8603 82.0985 31.159 82.2751 31.4148C82.4505 31.6705 82.6829 31.8705 82.9722 32.0123C83.2603 32.1542 83.574 32.2251 83.9121 32.2251C84.306 32.2251 84.6511 32.1751 84.9473 32.0774C85.2436 31.9786 85.5666 31.824 85.9186 31.6124L85.6863 31.2741C85.6723 31.2881 85.4957 31.3799 85.1588 31.5485L85.1565 31.5496Z" fill="#F2F2F3"/>
<path d="M83.9103 32.3192C83.5606 32.3192 83.2306 32.2436 82.9297 32.096C82.6276 31.946 82.3813 31.7356 82.1977 31.467C82.0118 31.1962 81.9177 30.8776 81.9177 30.5173V21.5625H80.3341V20.9533H81.9177V17.1287H82.5265V20.9533H85.1662V21.5625H82.5265V30.5208C82.5532 30.9021 82.6996 31.1904 82.975 31.3961C83.2527 31.6031 83.5687 31.7088 83.9114 31.7088C84.3878 31.7088 84.7933 31.6263 85.1151 31.4647C85.5369 31.2543 85.6136 31.2101 85.6275 31.2008L85.7065 31.1218L85.7623 31.2217L86.0504 31.6414L85.9656 31.6926C85.6089 31.9065 85.2766 32.0657 84.9757 32.1657C84.6713 32.2668 84.3135 32.318 83.9114 32.318L83.9103 32.3192ZM80.5188 21.3776H82.1024V30.5184C82.1024 30.8393 82.1861 31.1229 82.3499 31.3624C82.5149 31.603 82.738 31.7937 83.011 31.9286C83.2864 32.0634 83.5885 32.132 83.9091 32.132C84.2914 32.132 84.6295 32.0843 84.9141 31.989C85.1779 31.9007 85.4695 31.7646 85.782 31.5833L85.6554 31.3996C85.5822 31.4391 85.4486 31.5077 85.1976 31.6333C84.8479 31.8088 84.4145 31.8972 83.9091 31.8972C83.5246 31.8972 83.1725 31.7797 82.8611 31.5472C82.5439 31.3101 82.3673 30.9683 82.3383 30.5289V21.3776H84.978V21.1416H82.3383V17.317H82.1024V21.1416H80.5188V21.3776Z" fill="#F2F2F3"/>
<path d="M88.8509 31.7822C89.3853 32.0775 89.9837 32.2263 90.6459 32.2263C91.6033 32.2263 92.4898 32.0426 93.3066 31.6764C94.1234 31.3102 94.7845 30.8034 95.2922 30.1547V31.1684C95.2922 31.3521 95.334 31.5171 95.4188 31.6648C95.5036 31.8124 95.6152 31.9147 95.7569 31.9717C95.7848 31.9856 95.8197 31.9961 95.8627 32.0031C95.9045 32.01 95.9684 32.0135 96.0532 32.0135V31.5904C95.9544 31.5904 95.8743 31.5555 95.8104 31.4846C95.7465 31.4137 95.7151 31.3091 95.7151 31.1672V25.1036C95.7151 23.8074 95.3526 22.7797 94.6276 22.0183C93.9026 21.258 92.9278 20.8767 91.7032 20.8767C91.1397 20.8767 90.5414 20.9964 89.9082 21.2359C89.275 21.4754 88.6057 21.8346 87.9017 22.3136L88.1549 22.6519C88.7742 22.2159 89.39 21.8811 90.0023 21.6486C90.6146 21.4161 91.1816 21.2999 91.7021 21.2999C92.7861 21.2999 93.6551 21.6486 94.3104 22.3461C94.9645 23.0436 95.2922 23.962 95.2922 25.1036V26.3498C94.7705 26.1533 94.1838 26.001 93.5285 25.8953C92.8732 25.7895 92.2365 25.7372 91.6173 25.7372C90.7296 25.7372 89.9488 25.8708 89.2726 26.1382C88.5964 26.4056 88.0655 26.7718 87.6786 27.2368C87.2917 27.7018 87.0977 28.2435 87.0977 28.8643C87.0977 29.4851 87.2557 30.0512 87.5728 30.5651C87.89 31.08 88.3153 31.4846 88.8509 31.7799V31.7822ZM88.6499 26.9008C89.4028 26.4079 90.3927 26.1615 91.6173 26.1615C92.2783 26.1615 92.9162 26.2138 93.5285 26.3196C94.1408 26.4254 94.7287 26.5904 95.2922 26.816V28.9922C95.2922 29.1189 95.2678 29.2561 95.2178 29.4037C95.1679 29.5513 95.0877 29.7036 94.975 29.8582C94.5951 30.45 94.0142 30.9219 93.2334 31.2742C92.4515 31.6264 91.5894 31.802 90.6459 31.802C90.0685 31.802 89.541 31.6718 89.0623 31.4114C88.5837 31.151 88.2072 30.7987 87.933 30.3546C87.6588 29.9106 87.5217 29.4142 87.5217 28.8655C87.5217 28.0482 87.8982 27.3937 88.6511 26.9008H88.6499Z" fill="#F2F2F3"/>
<path d="M90.6453 32.3192C89.9714 32.3192 89.351 32.1657 88.8049 31.8635C88.2577 31.5601 87.8162 31.1404 87.4932 30.6161C87.169 30.0895 87.004 29.5013 87.004 28.8665C87.004 28.2318 87.2062 27.6587 87.6059 27.1797C88.0009 26.7054 88.5493 26.3265 89.2371 26.0544C89.9214 25.7836 90.722 25.6464 91.6154 25.6464C92.237 25.6464 92.8853 25.6999 93.5418 25.8057C94.1459 25.9033 94.7013 26.0416 95.1962 26.2183V25.1058C95.1962 23.9945 94.8744 23.0889 94.24 22.4123C93.6068 21.738 92.7529 21.3963 91.7002 21.3963C91.1937 21.3963 90.6325 21.5114 90.033 21.738C89.43 21.9671 88.8154 22.3007 88.2065 22.7308L88.1322 22.7831L87.7662 22.2937L87.8475 22.2391C88.5539 21.759 89.2348 21.3928 89.8726 21.1521C90.5151 20.9092 91.1298 20.7871 91.7014 20.7871C92.9469 20.7871 93.9542 21.1812 94.6932 21.9566C95.4321 22.732 95.8074 23.791 95.8074 25.1058V31.1695C95.8074 31.2857 95.8306 31.3717 95.8782 31.4241C95.9247 31.4752 95.9793 31.4985 96.0525 31.4985H96.1455V32.1076H96.0525C95.9596 32.1076 95.8933 32.1041 95.8469 32.096C95.7958 32.0878 95.7516 32.0739 95.7144 32.0553C95.5622 31.9949 95.4321 31.8786 95.338 31.7124C95.245 31.5508 95.1986 31.3683 95.1986 31.1695V30.415C94.7071 30.9777 94.0855 31.4299 93.3454 31.7623C92.5205 32.132 91.6119 32.3192 90.6464 32.3192H90.6453ZM88.8955 31.7007C89.4137 31.9867 90.0028 32.1332 90.6453 32.1332C91.584 32.1332 92.467 31.9518 93.2676 31.5915C94.0658 31.2334 94.7222 30.7312 95.2172 30.0976L95.3845 29.8849V31.1695C95.3845 31.3357 95.4228 31.4868 95.4983 31.6194C95.5727 31.7496 95.6679 31.8367 95.7899 31.8856C95.8167 31.8995 95.8434 31.9065 95.8759 31.9123C95.8968 31.9158 95.9236 31.9181 95.9584 31.9204V31.6775C95.8736 31.66 95.7992 31.617 95.7388 31.5496C95.661 31.4624 95.6203 31.3345 95.6203 31.1706V25.107C95.6203 23.8422 95.2625 22.8261 94.5584 22.0868C93.8555 21.3486 92.8934 20.9743 91.7014 20.9743C91.153 20.9743 90.5604 21.0929 89.9389 21.3277C89.3393 21.5544 88.6992 21.895 88.0334 22.3402L88.174 22.5274C88.7724 22.1135 89.3754 21.7892 89.9679 21.5648C90.5883 21.3288 91.1716 21.2103 91.7014 21.2103C92.8075 21.2103 93.7079 21.5718 94.3771 22.2856C95.0452 22.997 95.3845 23.9468 95.3845 25.107V26.4892L95.2578 26.4415C94.7443 26.2474 94.1564 26.0963 93.5127 25.9928C92.8656 25.8882 92.2277 25.8359 91.6166 25.8359C90.7463 25.8359 89.9691 25.9684 89.3068 26.2311C88.648 26.4927 88.1252 26.8531 87.7499 27.303C87.3781 27.7482 87.1911 28.2748 87.1911 28.87C87.1911 29.4652 87.3468 30.0256 87.6523 30.522C87.9579 31.0195 88.3762 31.4171 88.8955 31.7042V31.7007ZM90.6453 31.8972C90.055 31.8972 89.5066 31.7623 89.0175 31.495C88.526 31.2276 88.1345 30.8602 87.8522 30.4057C87.5698 29.9488 87.4269 29.4315 87.4269 28.8665C87.4269 28.0202 87.822 27.332 88.5992 26.824C89.3649 26.323 90.3792 26.0695 91.6166 26.0695C92.28 26.0695 92.9295 26.123 93.5441 26.23C94.1599 26.3358 94.7582 26.5043 95.3252 26.731L95.3833 26.7543V28.9933C95.3833 29.1281 95.3566 29.2769 95.3054 29.4338C95.2532 29.5908 95.1672 29.7524 95.0498 29.914C94.6641 30.5138 94.0646 31.0021 93.2699 31.3601C92.4798 31.7158 91.5968 31.8972 90.6453 31.8972ZM91.6166 26.2555C90.4164 26.2555 89.4346 26.4997 88.7003 26.9798C87.9684 27.4587 87.6128 28.076 87.6128 28.8665C87.6128 29.3966 87.7464 29.8802 88.0102 30.3069C88.2739 30.7347 88.6422 31.0788 89.1046 31.3311C89.5671 31.5833 90.0853 31.71 90.6441 31.71C91.5701 31.71 92.4264 31.5345 93.1932 31.1904C93.9531 30.8475 94.5258 30.3825 94.8953 29.8093C95.0045 29.6594 95.0824 29.5152 95.1277 29.3757C95.173 29.2374 95.1962 29.1083 95.1962 28.9933V26.8798C94.6583 26.6694 94.0925 26.5125 93.5104 26.4113C92.9062 26.3067 92.2684 26.2544 91.6154 26.2544L91.6166 26.2555Z" fill="#F2F2F3"/>
<path d="M103.276 21.0903C102.557 21.1751 101.878 21.4669 101.238 21.9668C100.597 22.4667 100.086 23.1049 99.7063 23.8791V21.0472H99.2834V32.0132H99.7063V25.0823C100.003 23.9977 100.53 23.1351 101.29 22.4934C102.05 21.8529 102.944 21.5111 103.971 21.4681V21.0449C103.887 21.0449 103.784 21.0484 103.665 21.0554C103.545 21.0624 103.415 21.0728 103.274 21.0868L103.276 21.0903Z" fill="#F2F2F3"/>
<path d="M99.7984 32.1074H99.1896V20.9543H99.7984V23.5037C100.161 22.8667 100.624 22.3261 101.179 21.8937C101.83 21.3856 102.531 21.0834 103.263 20.9974H103.265C103.407 20.9834 103.538 20.9729 103.659 20.9648C103.781 20.9578 103.886 20.9543 103.972 20.9543H104.065V21.56L103.975 21.5635C102.974 21.6042 102.09 21.9425 101.349 22.5667C100.611 23.1898 100.089 24.0408 99.7984 25.0964V32.1074ZM99.3766 31.9203H99.6125L99.616 25.0592C99.9157 23.9606 100.458 23.0748 101.23 22.4238C101.98 21.7914 102.871 21.4403 103.879 21.381V21.1415C103.817 21.1427 103.748 21.1462 103.672 21.1508C103.553 21.1578 103.425 21.1682 103.286 21.181C102.589 21.2636 101.92 21.5519 101.295 22.039C100.669 22.5284 100.162 23.1608 99.7903 23.9187L99.6136 24.2791V21.1392H99.3778V31.9191L99.3766 31.9203Z" fill="#F2F2F3"/>
<path d="M110.305 31.2753C110.291 31.2892 110.115 31.3811 109.778 31.5496C109.44 31.7182 109.025 31.8031 108.532 31.8031C108.166 31.8031 107.835 31.6926 107.54 31.4718C107.245 31.2509 107.082 30.9347 107.054 30.522V21.4707H109.694V21.0476H107.054V17.2229H106.633V21.0476H105.049V21.4707H106.633V30.5185C106.633 30.8603 106.72 31.159 106.896 31.4148C107.072 31.6705 107.304 31.8705 107.593 32.0123C107.882 32.1542 108.195 32.2251 108.533 32.2251C108.927 32.2251 109.272 32.1751 109.569 32.0774C109.865 31.9786 110.188 31.824 110.54 31.6124L110.307 31.2741L110.305 31.2753Z" fill="#F2F2F3"/>
<path d="M108.531 32.3192C108.181 32.3192 107.851 32.2436 107.55 32.096C107.248 31.946 107 31.7356 106.817 31.467C106.631 31.1962 106.537 30.8776 106.537 30.5173V21.5625H104.953V20.9533H106.537V17.1287H107.146V20.9533H109.785V21.5625H107.146V30.5208C107.172 30.9021 107.319 31.1904 107.593 31.3961C107.871 31.6031 108.187 31.7088 108.529 31.7088C109.006 31.7088 109.411 31.6263 109.733 31.4647C110.168 31.2473 110.235 31.2078 110.245 31.2008L110.324 31.1241L110.379 31.2217L110.667 31.6414L110.582 31.6926C110.226 31.9065 109.893 32.0657 109.593 32.1657C109.288 32.2668 108.93 32.318 108.528 32.318L108.531 32.3192ZM105.139 21.3776H106.723V30.5184C106.723 30.8393 106.806 31.1229 106.97 31.3624C107.135 31.603 107.358 31.7937 107.631 31.9286C107.906 32.0634 108.208 32.132 108.529 32.132C108.912 32.132 109.25 32.0843 109.534 31.989C109.798 31.9007 110.09 31.7646 110.402 31.5833L110.276 31.3996C110.204 31.4391 110.07 31.5077 109.817 31.6333C109.468 31.8088 109.035 31.8972 108.529 31.8972C108.145 31.8972 107.793 31.7797 107.481 31.5472C107.164 31.3101 106.989 30.9683 106.959 30.5289V21.3776H109.598V21.1416H106.959V17.317H106.723V21.1416H105.139V21.3776Z" fill="#F2F2F3"/>
<path d="M77.1063 43.9885C77.7674 43.6932 78.2926 43.2282 78.6795 42.5935C79.0664 41.9599 79.2604 41.2624 79.2604 40.5021C79.2604 39.8686 79.1233 39.2594 78.8491 38.6747C78.5749 38.0899 78.1799 37.611 77.6663 37.2378C77.1516 36.8647 76.5428 36.6775 75.8399 36.6775H69.2092V51.6797H76.1571C76.8461 51.6797 77.4735 51.5006 78.037 51.1414C78.6005 50.7822 79.0513 50.3067 79.3882 49.715C79.7263 49.1233 79.8948 48.4828 79.8948 47.7922C79.8948 46.9331 79.645 46.1473 79.1454 45.4358C78.6458 44.7244 77.9661 44.2419 77.1075 43.9885H77.1063ZM69.631 37.1006H75.8399C76.4313 37.1006 76.9518 37.2587 77.4026 37.5761C77.8534 37.8935 78.2054 38.3085 78.4587 38.8223C78.712 39.3373 78.8386 39.8965 78.8386 40.5021C78.8386 41.052 78.705 41.5868 78.4378 42.1076C78.1706 42.6284 77.8046 43.0585 77.3399 43.3968C76.8751 43.7351 76.3337 43.9036 75.7144 43.9036H69.6321V37.0995L69.631 37.1006ZM79.028 49.4511C78.7318 49.9789 78.3344 50.4125 77.8348 50.7508C77.3352 51.0891 76.7752 51.2577 76.1559 51.2577H69.631V44.3268H76.3035C76.9088 44.3268 77.4502 44.493 77.9301 44.8232C78.4088 45.1545 78.7852 45.58 79.0594 46.1019C79.3336 46.6227 79.4707 47.1866 79.4707 47.7922C79.4707 48.3979 79.3231 48.9222 79.0269 49.4511H79.028Z" fill="#F2F2F3"/>
<path d="M76.1581 51.7726H69.1173V36.5845H75.8409C76.5613 36.5845 77.1945 36.7786 77.722 37.1622C78.246 37.5435 78.6538 38.0388 78.935 38.6351C79.2138 39.2292 79.3555 39.8569 79.3555 40.5021C79.3555 41.2764 79.1557 41.9959 78.7607 42.6423C78.4075 43.2212 77.9358 43.6665 77.3572 43.9711C78.1286 44.2454 78.756 44.7185 79.2219 45.3823C79.7308 46.1066 79.9887 46.9168 79.9887 47.791C79.9887 48.4944 79.8145 49.157 79.4694 49.7603C79.1267 50.3614 78.6608 50.8531 78.0868 51.2193C77.5117 51.5866 76.8622 51.7726 76.157 51.7726H76.1581ZM69.3044 51.5855H76.1581C76.8274 51.5855 77.442 51.4088 77.9869 51.0612C78.5353 50.7113 78.9803 50.2428 79.3079 49.6673C79.6355 49.0919 79.8029 48.4607 79.8029 47.791C79.8029 46.9552 79.5565 46.181 79.0697 45.4893C78.5841 44.7988 77.916 44.3233 77.0818 44.078L76.839 44.0059L77.0702 43.9025C77.7115 43.6165 78.2262 43.1596 78.6015 42.5447C78.9779 41.9285 79.1685 41.2415 79.1685 40.5021C79.1685 39.8848 79.0325 39.2827 78.7653 38.7142C78.4981 38.1469 78.11 37.6761 77.6128 37.3134C77.1178 36.953 76.5206 36.7716 75.8409 36.7716H69.3032V51.5866L69.3044 51.5855ZM76.1581 51.3495H69.5391V44.2326H76.3057C76.9273 44.2326 77.4919 44.4047 77.9846 44.7453C78.4737 45.0836 78.8641 45.5253 79.1441 46.0578C79.4241 46.5902 79.567 47.1738 79.567 47.791C79.567 48.4083 79.4136 48.9559 79.1116 49.4953C78.8106 50.0335 78.3993 50.4823 77.8893 50.8264C77.3757 51.174 76.7937 51.3495 76.1581 51.3495ZM69.7261 51.1623H76.1581C76.7553 51.1623 77.3026 50.9972 77.7847 50.6717C78.2692 50.3439 78.6608 49.9173 78.9489 49.4035C79.2347 48.8919 79.3811 48.3491 79.3811 47.7899C79.3811 47.2028 79.2463 46.6483 78.9803 46.1438C78.7142 45.6381 78.3436 45.2196 77.88 44.8987C77.4187 44.5802 76.8901 44.4186 76.3068 44.4186H69.7273V51.1623H69.7261ZM75.7143 43.9955H69.5391V37.0053H75.8409C76.4486 37.0053 76.9923 37.1704 77.4571 37.497C77.9183 37.8225 78.2843 38.2527 78.5434 38.7793C78.8013 39.3047 78.9326 39.8837 78.9326 40.4998C78.9326 41.0613 78.7944 41.6158 78.5213 42.1482C78.2483 42.6807 77.8684 43.1247 77.3955 43.47C76.9168 43.8188 76.3522 43.9955 75.7143 43.9955ZM69.7261 43.8083H75.7143C76.3115 43.8083 76.8401 43.6432 77.2851 43.3189C77.7359 42.9911 78.0949 42.5691 78.3552 42.0634C78.6143 41.5577 78.7456 41.0322 78.7456 40.4998C78.7456 39.9116 78.6213 39.3605 78.3749 38.8607C78.1298 38.3631 77.7847 37.9551 77.349 37.6493C76.9157 37.3448 76.4079 37.1913 75.8398 37.1913H69.725V43.8083H69.7261Z" fill="#F2F2F3"/>
<path d="M83.3194 40.7136H82.8965V51.6796H83.3194V40.7136Z" fill="#F2F2F3"/>
<path d="M83.4117 51.7725H82.8029V40.6194H83.4117V51.7725ZM82.9888 51.5853H83.2246V40.8054H82.9888V51.5853Z" fill="#F2F2F3"/>
<path d="M83.3194 36.2556H82.8965V37.8831H83.3194V36.2556Z" fill="#F2F2F3"/>
<path d="M83.4117 37.9761H82.8029V36.1626H83.4117V37.9761ZM82.9888 37.7889H83.2246V36.3486H82.9888V37.7889Z" fill="#F2F2F3"/>
<path d="M95.7986 43.27C95.2781 42.5237 94.6506 41.8832 93.9187 41.3472C93.1867 40.8125 92.3211 40.5439 91.3208 40.5439C90.5749 40.5439 89.8882 40.6997 89.262 41.0089C88.6357 41.3193 88.0966 41.7413 87.6458 42.2761C87.195 42.812 86.8465 43.4212 86.6002 44.1035C86.3539 44.7871 86.2307 45.4951 86.2307 46.2274C86.2307 46.9598 86.3608 47.619 86.6211 48.2874C86.8813 48.957 87.2473 49.5627 87.719 50.1044C88.1908 50.6473 88.7496 51.0798 89.3979 51.4041C90.0451 51.7284 90.7492 51.89 91.5102 51.89C92.3409 51.89 93.1472 51.6575 93.928 51.1925C94.7099 50.7275 95.3327 50.1288 95.7974 49.3964V52.1435C95.7974 52.9746 95.5964 53.6756 95.1956 54.2453C94.7947 54.8161 94.2591 55.245 93.591 55.5345C92.9218 55.8228 92.1864 55.9681 91.3847 55.9681C90.4982 55.9681 89.664 55.7844 88.8821 55.4182C88.1001 55.052 87.4844 54.4603 87.0336 53.6431L86.6327 53.7698C87.0405 54.544 87.611 55.1753 88.343 55.6612C89.0749 56.1471 90.0881 56.3901 91.3835 56.3901C92.2142 56.3901 92.9985 56.239 93.7386 55.9356C94.4775 55.6321 95.0759 55.1648 95.5337 54.5301C95.9914 53.8965 96.2203 53.1002 96.2203 52.1423V40.7113H95.7974V43.2677L95.7986 43.27ZM95.7986 48.1084C95.7707 48.5025 95.6301 48.8977 95.3768 49.2918C95.1235 49.6859 94.7924 50.0486 94.3846 50.3799C93.9768 50.7112 93.526 50.9751 93.0333 51.1728C92.5407 51.3704 92.033 51.468 91.5125 51.468C90.8363 51.468 90.2066 51.3274 89.6222 51.0449C89.0377 50.7636 88.5207 50.3764 88.0699 49.8824C87.6191 49.3895 87.2706 48.8291 87.0243 48.2025C86.7779 47.576 86.6548 46.9168 86.6548 46.2274C86.6548 45.6078 86.7605 44.9882 86.972 44.3686C87.1834 43.749 87.4855 43.1817 87.8794 42.6678C88.2732 42.154 88.7624 41.7413 89.3468 41.4321C89.9312 41.1229 90.5888 40.9671 91.3208 40.9671C91.954 40.9671 92.5663 41.1043 93.1577 41.3786C93.749 41.653 94.28 42.0308 94.7517 42.5086C95.2234 42.9875 95.572 43.5374 95.7974 44.157V48.1084H95.7986Z" fill="#F2F2F3"/>
<path d="M91.3857 56.4853C90.0786 56.4853 89.0376 56.2354 88.2929 55.7402C87.5516 55.2473 86.9649 54.5997 86.5512 53.8151L86.499 53.7162L87.0799 53.5337L87.1171 53.6C87.5563 54.3951 88.1627 54.9787 88.9226 55.3356C89.6871 55.6948 90.5155 55.8762 91.3857 55.8762C92.1711 55.8762 92.9019 55.7332 93.556 55.4507C94.2055 55.1705 94.7318 54.7474 95.1211 54.194C95.5091 53.6418 95.7055 52.9525 95.7055 52.1457V49.7044C95.2558 50.3333 94.6749 50.86 93.9778 51.2761C93.1854 51.7469 92.3559 51.9864 91.5124 51.9864C90.7409 51.9864 90.017 51.819 89.3594 51.4912C88.703 51.1634 88.129 50.7181 87.6515 50.1694C87.1752 49.623 86.7999 49.0023 86.5361 48.3257C86.2724 47.6479 86.1388 46.9435 86.1388 46.2308C86.1388 45.5182 86.2654 44.7673 86.5141 44.0756C86.7627 43.385 87.1206 42.7608 87.576 42.2202C88.0326 41.6773 88.5868 41.2425 89.2212 40.9286C89.8579 40.6136 90.5643 40.4543 91.3218 40.4543C92.3373 40.4543 93.2296 40.7299 93.9743 41.2751C94.6331 41.7575 95.2152 42.3318 95.7055 42.9851V40.6229H96.3143V52.1469C96.3143 53.1199 96.0773 53.9418 95.6102 54.5893C95.1455 55.2345 94.5274 55.7181 93.7745 56.0261C93.0274 56.3319 92.2234 56.4877 91.3846 56.4877L91.3857 56.4853ZM86.7708 53.8267C87.1659 54.5393 87.7131 55.131 88.3974 55.5856C89.1108 56.0587 90.1158 56.2993 91.3869 56.2993C92.2013 56.2993 92.9821 56.1482 93.7059 55.8518C94.4251 55.5565 95.0153 55.095 95.4603 54.4788C95.9041 53.8639 96.1295 53.0792 96.1295 52.1457V40.8077H95.8937V43.5675L95.7241 43.3246C95.2117 42.5899 94.5866 41.9493 93.8663 41.4239C93.1541 40.9031 92.2989 40.6392 91.3241 40.6392C90.5957 40.6392 89.9171 40.7926 89.306 41.0937C88.6937 41.396 88.1604 41.8156 87.7212 42.3388C87.2797 42.8631 86.9335 43.4676 86.6918 44.1383C86.4502 44.8091 86.327 45.5136 86.327 46.2297C86.327 46.9458 86.456 47.6003 86.7116 48.2559C86.9672 48.9128 87.3309 49.5149 87.7933 50.045C88.2545 50.5751 88.8099 51.0053 89.4431 51.3226C90.0751 51.6388 90.7711 51.7993 91.5135 51.7993C92.3233 51.7993 93.1204 51.5691 93.8837 51.1145C94.6493 50.6588 95.2675 50.066 95.7217 49.3487L95.8937 49.0778V52.1457C95.8937 52.992 95.6857 53.7174 95.2744 54.3021C94.8655 54.8846 94.3124 55.3286 93.6304 55.6228C92.953 55.9145 92.1978 56.0633 91.3869 56.0633C90.4899 56.0633 89.6348 55.8762 88.8447 55.5053C88.0698 55.1426 87.447 54.5544 86.9928 53.7581L86.772 53.8278L86.7708 53.8267ZM91.5135 51.5621C90.8257 51.5621 90.1762 51.4168 89.5837 51.1297C88.9911 50.8437 88.459 50.4461 88.0024 49.9462C87.5458 49.4463 87.1879 48.8721 86.9393 48.2373C86.6895 47.6026 86.5629 46.926 86.5629 46.2274C86.5629 45.6008 86.6709 44.9649 86.8847 44.3383C87.0973 43.7117 87.4087 43.1304 87.8072 42.6108C88.2069 42.0888 88.7111 41.6645 89.3048 41.3495C89.9009 41.0333 90.5794 40.874 91.323 40.874C91.9666 40.874 92.5987 41.0158 93.1994 41.2948C93.7977 41.5727 94.3426 41.9598 94.8201 42.4446C95.2988 42.9316 95.6578 43.4978 95.8867 44.1267L95.8925 44.1581V48.1164C95.8623 48.5256 95.7159 48.9383 95.4557 49.344C95.1977 49.7451 94.8573 50.1183 94.4437 50.4542C94.0301 50.789 93.5677 51.0599 93.0681 51.261C92.5673 51.4621 92.0445 51.5633 91.5135 51.5633V51.5621ZM91.323 41.0612C90.6108 41.0612 89.9613 41.2135 89.392 41.5146C88.8215 41.8168 88.3382 42.2248 87.9548 42.7247C87.569 43.2281 87.2681 43.7919 87.0613 44.3987C86.8545 45.0056 86.7499 45.6205 86.7499 46.2274C86.7499 46.9028 86.8719 47.5561 87.1124 48.1687C87.3541 48.7826 87.6992 49.3371 88.1395 49.8195C88.5798 50.302 89.0922 50.6856 89.6638 50.9599C90.232 51.2343 90.8536 51.3738 91.5135 51.3738C92.0201 51.3738 92.5197 51.2761 92.9995 51.0843C93.4817 50.8913 93.9278 50.6298 94.3275 50.3066C94.726 49.9834 95.0537 49.6242 95.3 49.2406C95.5428 48.8628 95.6799 48.4815 95.7078 48.1048V44.1732C95.4882 43.5757 95.1455 43.0374 94.69 42.5748C94.2276 42.1063 93.7001 41.7319 93.1227 41.4634C92.5464 41.196 91.9411 41.06 91.3241 41.06L91.323 41.0612Z" fill="#F2F2F3"/>
<path d="M100.044 50.3279H99.6211V51.6799H100.044V50.3279Z" fill="#F2F2F3"/>
<path d="M100.136 51.7728H99.5275V50.2336H100.136V51.7728ZM99.7134 51.5856H99.9492V50.4196H99.7134V51.5856Z" fill="#F2F2F3"/>
<path d="M55.6905 39.9337L55.6103 40.1127C55.2943 40.823 54.7935 41.4647 54.1208 42.0192C53.4388 42.5807 52.6569 43.0283 51.7936 43.3491C50.9338 43.67 50.0102 43.8316 49.0458 43.8316C47.5226 43.8316 46.1226 43.4235 44.8829 42.6179C43.6362 41.81 42.6278 40.6893 41.8853 39.2885C41.1406 37.8865 40.763 36.2509 40.763 34.4257C40.763 32.6006 41.1301 30.9033 41.8563 29.5002C42.579 28.1017 43.5851 27.0031 44.8469 26.237C46.1098 25.4698 47.5226 25.0815 49.047 25.0815C50.4087 25.0815 51.6681 25.3965 52.7881 26.0162C53.9058 26.6358 54.8179 27.539 55.4976 28.6992L55.5859 28.8503L64.1371 26.2382L64.0198 26.0034C63.3924 24.7479 62.5918 23.597 61.6391 22.5809C60.6887 21.5672 59.5606 20.6605 58.2872 19.8874C57.0115 19.1132 55.5917 18.525 54.0662 18.139C52.5442 17.753 50.8757 17.5577 49.1074 17.5577C47.3391 17.5577 45.6648 17.7507 44.1335 18.1332C42.5987 18.5157 41.1638 19.0969 39.8684 19.8618C39.5953 20.0223 39.3293 20.1897 39.069 20.3629H33.3713C33.556 20.1001 33.7605 19.8572 33.9836 19.6386C34.3008 19.3271 34.6749 19.0144 35.0943 18.711C35.5114 18.4087 36.0064 18.1006 36.5629 17.7937C37.1194 17.488 37.7573 17.1462 38.459 16.7777L38.4637 16.7754C38.9633 16.4987 39.4884 16.1697 40.0252 15.7977C40.5655 15.4234 41.0732 14.9898 41.5345 14.5085C42.0015 14.0214 42.3907 13.4494 42.694 12.8101C43.0007 12.1614 43.1564 11.4092 43.1564 10.5746C43.1564 9.36904 42.8532 8.29953 42.2548 7.3951C41.6576 6.49299 40.7874 5.77921 39.6685 5.27236C38.5578 4.76899 37.2042 4.5144 35.6427 4.5144C34.6133 4.5144 33.6316 4.62484 32.7253 4.84339C31.8226 5.06078 30.9883 5.33978 30.2448 5.6711C29.4988 6.00474 28.847 6.36512 28.308 6.74409C27.77 7.12191 27.332 7.4788 27.0067 7.8043L26.8603 7.95078L30.0531 11.6336L30.2192 11.4255C30.4806 11.0977 30.7804 10.7815 31.1103 10.485C31.438 10.1909 31.7982 9.91774 32.1827 9.67594C32.5592 9.43879 32.9739 9.25395 33.4154 9.12375C33.8558 8.99471 34.3426 8.92961 34.8631 8.92961C35.5021 8.92961 36.0389 9.03889 36.4572 9.25511C36.872 9.46901 37.1973 9.75615 37.4238 10.1061C37.6481 10.4525 37.7619 10.8419 37.7619 11.2628C37.7619 11.6522 37.6539 11.9847 37.4331 12.28C37.2008 12.5903 36.8476 12.9031 36.3863 13.2065C35.9065 13.5227 35.3128 13.8714 34.6226 14.2446C33.9116 14.6271 33.0901 15.0723 32.1792 15.5664H32.1769C31.1045 16.1685 30.2064 16.7963 29.507 17.4345C29.2862 17.6356 29.0806 17.8414 28.8877 18.053H23.5025V7.49391H14.741V18.0541H10.4573V24.8955H14.741V43.1969C14.741 44.1548 14.8398 45.0348 15.035 45.8125C15.2313 46.5972 15.5311 47.3005 15.9261 47.9027C16.7127 49.1047 17.7804 49.9917 19.1003 50.5404C20.405 51.0821 21.8539 51.3565 23.4073 51.3565C24.5714 51.3565 25.7461 51.2402 26.8963 51.0101C28.0419 50.7811 29.1294 50.4742 30.1274 50.0998C31.1208 49.7267 31.9794 49.3919 32.68 49.1036L32.8578 49.0303L31.0708 42.0099L30.8338 42.1088C30.3458 42.3134 29.6824 42.5621 28.8598 42.8493C28.0605 43.1294 27.2286 43.2713 26.3874 43.2713C25.5462 43.2713 24.8921 43.0411 24.3577 42.5877C23.8302 42.1425 23.5444 41.3938 23.506 40.3627V24.8932H26.7418V24.9094H34.5157C34.2845 25.2605 34.0661 25.6221 33.8628 25.9941C33.1633 27.2635 32.6312 28.6178 32.2815 30.0163C31.9318 31.4137 31.7552 32.897 31.7552 34.4234C31.7552 36.6531 32.1676 38.8096 32.9821 40.8346C33.7965 42.8586 34.97 44.6907 36.4723 46.2798C37.2252 47.0761 38.0675 47.7946 38.9761 48.4142C39.8846 49.0338 40.885 49.5732 41.9492 50.0173C43.0147 50.4614 44.1626 50.7997 45.3616 51.0217C46.5595 51.2437 47.8422 51.3553 49.1736 51.3553C51.588 51.3553 53.7966 50.9845 55.7393 50.2544C57.6807 49.5244 59.3956 48.4956 60.8375 47.1994C62.2805 45.9032 63.3947 44.4152 64.1499 42.7795L64.2568 42.5482L55.6928 39.9314L55.6905 39.9337ZM23.0599 24.4526V40.3778C23.1029 41.5414 23.4421 42.3994 24.0695 42.9295C24.6865 43.4526 25.4661 43.7177 26.3863 43.7177C27.3064 43.7177 28.1581 43.5677 29.0051 43.2701C29.7103 43.0236 30.3005 42.8051 30.7664 42.6179L32.3326 48.7676C31.6703 49.0373 30.878 49.3454 29.9717 49.686C28.9958 50.0522 27.9315 50.3521 26.8092 50.5765C25.6868 50.8008 24.5424 50.9136 23.4073 50.9136C21.9131 50.9136 20.5212 50.6497 19.2711 50.1312C18.0349 49.6174 17.0345 48.7862 16.2979 47.6597C15.5601 46.5344 15.186 45.0336 15.186 43.198V24.4526H10.9011V18.4982H15.1848V7.93799H23.061V18.4982H28.5113C28.2522 18.8226 28.0268 19.1574 27.8362 19.5003C27.4308 20.228 27.1426 21.0243 26.9811 21.8683C26.8324 22.6379 26.7522 23.5098 26.7418 24.4596C25.5822 24.4596 23.061 24.4526 23.061 24.4526H23.0599ZM27.1833 24.4689C27.1937 23.5423 27.2716 22.696 27.4157 21.9509C27.5679 21.1545 27.8397 20.4024 28.2231 19.7154C28.6054 19.0295 29.1375 18.3727 29.8067 17.7623C30.4806 17.1474 31.3508 16.5394 32.393 15.9558C33.3016 15.4617 34.123 15.0177 34.8329 14.6352C35.5347 14.2562 36.14 13.9005 36.6303 13.5773C37.1345 13.2448 37.5238 12.8984 37.7875 12.5462C38.064 12.1765 38.2046 11.744 38.2046 11.2628C38.2046 10.7547 38.0675 10.2851 37.7956 9.86427C37.5261 9.44809 37.1438 9.1098 36.6593 8.85986C36.1772 8.61108 35.5718 8.48553 34.862 8.48553C34.2996 8.48553 33.771 8.55644 33.29 8.69827C32.809 8.83893 32.3558 9.04237 31.9457 9.30045C31.5402 9.5562 31.1591 9.84334 30.8129 10.1549C30.5341 10.406 30.2761 10.6699 30.0414 10.9442L27.4679 7.97519C27.7561 7.70665 28.1232 7.41602 28.5624 7.10796C29.0783 6.74526 29.7045 6.39883 30.4248 6.07682C31.1429 5.75596 31.9527 5.48626 32.8287 5.27585C33.7013 5.06543 34.6482 4.95964 35.6427 4.95964C37.1403 4.95964 38.4335 5.20145 39.4861 5.67807C40.5283 6.15005 41.3346 6.81152 41.8853 7.64271C42.4349 8.47158 42.7137 9.45855 42.7137 10.5769C42.7137 11.3441 42.572 12.0323 42.2943 12.6217C42.012 13.2181 41.6495 13.7494 41.2161 14.2027C40.7758 14.6619 40.2901 15.0758 39.7743 15.4338C39.2491 15.7965 38.7379 16.1174 38.2522 16.3871C37.5493 16.7568 36.9103 17.0997 36.3514 17.4066C35.7775 17.7217 35.2686 18.0402 34.8364 18.3529C34.3984 18.6691 34.008 18.9958 33.6745 19.3236C33.3341 19.6584 33.0309 20.0455 32.7753 20.4722L32.5743 20.8081H38.4358C37.7062 21.3417 37.0323 21.923 36.4188 22.5484C35.8356 23.1436 35.2988 23.7888 34.8132 24.4758L27.1856 24.4712L27.1833 24.4689ZM60.5377 46.8715C59.1365 48.1317 57.4692 49.1303 55.5789 49.8418C53.6863 50.5532 51.5299 50.9147 49.169 50.9147C46.563 50.9147 44.1893 50.4765 42.1154 49.6104C40.0438 48.7467 38.2522 47.5237 36.7895 45.9776C35.3255 44.4291 34.1811 42.6447 33.3887 40.6719C32.5963 38.7003 32.1943 36.5985 32.1943 34.4269C32.1943 31.4474 32.8845 28.6829 34.2462 26.2115C35.6067 23.74 37.5737 21.7323 40.0938 20.2443C42.6138 18.7563 45.6463 18.0018 49.1074 18.0018C52.5686 18.0018 55.5778 18.7644 58.0571 20.2675C60.454 21.723 62.2851 23.64 63.5039 25.9685L55.7904 28.3249C55.0793 27.1682 54.1429 26.2614 53.0031 25.629C51.8157 24.9722 50.4842 24.6386 49.047 24.6386C47.4402 24.6386 45.9495 25.0489 44.6169 25.8592C43.283 26.6695 42.2223 27.8262 41.4613 29.2991C40.7037 30.7662 40.3192 32.4925 40.3192 34.4281C40.3192 35.3755 40.4179 36.2811 40.612 37.1216C40.8071 37.9644 41.1034 38.7642 41.4938 39.4989C42.2722 40.9672 43.3318 42.1425 44.6424 42.9923C45.9553 43.8444 47.4367 44.2768 49.047 44.2768C50.0636 44.2768 51.0396 44.1048 51.9493 43.7665C52.8579 43.4282 53.6828 42.9562 54.4031 42.3633C55.0735 41.8111 55.587 41.1753 55.9333 40.4731L63.6363 42.8272C62.9102 44.3187 61.8692 45.6788 60.5389 46.8727L60.5377 46.8715Z" fill="#F2F2F3"/>
</g>
<defs>
<clipPath id="clip0_757_1636">
<rect width="100.214" height="51.9711" fill="white" transform="translate(10.4572 4.5144)"/>
</clipPath>
</defs>
</svg>
