<svg width="169" height="60" viewBox="0 0 169 60" fill="none" xmlns="http://www.w3.org/2000/svg">
<g clip-path="url(#clip0_2354_132)">
<path d="M47.8618 49.5004C45.317 49.5004 42.8549 48.4188 41.5623 46.6316H41.4797V58.9005H34.6379V28.2072H41.1449V30.7443H41.27C42.5222 29.0817 44.8573 27.6243 47.9022 27.6243C53.9515 27.6243 57.7465 32.6982 57.7465 38.478C57.7484 44.2595 54.1188 49.5004 47.8618 49.5004ZM46.2346 33.1988C43.1473 33.1988 41.2296 35.9026 41.2296 38.522C41.2296 41.2259 43.1492 43.8454 46.2346 43.8454C49.489 43.8454 51.1143 41.1837 51.1143 38.4799C51.1163 35.8182 49.489 33.1988 46.2346 33.1988Z" fill="#2B2968"/>
<path d="M66.9592 33.3178V41.2202C66.9592 43.1341 67.5843 44.1312 69.5463 44.1312C70.2138 44.1312 71.0485 44.0065 71.5486 43.7975L71.6313 48.7891C70.7138 49.1208 69.1289 49.4123 67.669 49.4123C62.1217 49.4123 60.2847 46.4592 60.2847 42.0505V33.3178H56.9475V28.2035H60.2425V22.7556H66.9592V28.2035H71.8391V33.3178H66.9592Z" fill="#2B2968"/>
<path d="M79.4804 28.2102H72.6387V48.9204H79.4804V28.2102Z" fill="#2B2968"/>
<path d="M108.917 48.9174V37.6054C108.917 35.2353 108.375 33.239 105.955 33.239C103.618 33.239 102.493 35.402 102.493 37.73V48.9174H95.6509V37.1069C95.6509 34.7367 94.7335 33.239 92.6889 33.239C90.5192 33.239 89.2689 35.1931 89.2689 37.6879V48.9174H82.3867V28.2072H89.0189V31.076H89.1015C90.0614 29.3291 92.1887 27.6243 95.3163 27.6243C98.3188 27.6243 100.406 28.9129 101.573 31.1584C102.95 28.9954 105.118 27.6243 108.205 27.6243C113.837 27.6243 115.755 32.1997 115.755 36.1077V48.9174H108.917Z" fill="#2B2968"/>
<path d="M125.352 28.2102H118.51V48.9204H125.352V28.2102Z" fill="#2B2968"/>
<path d="M128.36 48.9109V17.4717H135.285V48.9128H128.36V48.9109Z" fill="#2B2968"/>
<path d="M158.766 40.4312H143.708C143.915 42.7189 146.21 44.3411 148.671 44.3411C150.841 44.3411 152.342 43.4265 153.261 42.1781L158.016 45.1714C156.055 48 152.802 49.5801 148.589 49.5801C142.332 49.5801 137.159 45.6297 137.159 38.6421C137.159 31.8633 142.082 27.5391 148.381 27.5391C154.513 27.5391 158.81 31.7387 158.81 38.8088C158.806 39.3497 158.806 39.9326 158.766 40.4312ZM152.509 36.1894C152.509 34.0263 151.131 32.2391 148.422 32.2391C145.794 32.2391 143.874 34.0686 143.708 36.1894H152.509Z" fill="#2B2968"/>
<path d="M167.682 33.4647C167.682 37.8637 166.496 42.1783 164.247 45.9465L164.03 45.8199C166.256 42.092 167.43 37.8196 167.43 33.4666C167.43 20.0529 156.403 9.13795 142.85 9.13795C134.26 9.13795 126.283 13.604 121.834 20.8449C121.767 20.9581 121.696 21.0713 121.628 21.1862C121.613 21.0521 121.594 20.9198 121.575 20.7874C119.965 9.64035 110.367 1.34862 98.8719 1.34862C86.7059 1.34862 76.6461 10.7583 75.971 22.7702L75.719 22.7548C76.4019 10.6107 86.5712 1.09741 98.8719 1.09741C104.652 1.09741 110.19 3.21637 114.464 7.05926C118.393 10.5934 120.961 15.3146 121.775 20.4556C126.299 13.2915 134.273 8.88481 142.849 8.88481C156.541 8.88674 167.682 19.9149 167.682 33.4647Z" stroke="#2B2968" stroke-width="0.958807" stroke-miterlimit="10"/>
<path fill-rule="evenodd" clip-rule="evenodd" d="M32.7969 34.0729C32.7969 41.6917 28.2228 47.3084 21.4888 49.0994H21.4869C20.7982 49.3353 20.1039 49.4675 19.4268 49.5154C13.491 49.9297 8.77276 43.661 19.6769 38.3243L20.7695 40.2744L24.626 34.7403L17.2552 34.0001L18.3459 35.9465C12.1081 37.2274 7.16666 40.1403 4.86811 45.0474C4.83733 45.0149 4.80463 44.9823 4.7777 44.9497C2.17526 42.2343 0.636475 38.4911 0.636475 34.0729C0.636475 24.6307 7.47634 18.686 16.6975 18.686C25.9551 18.686 32.7969 24.6326 32.7969 34.0729Z" fill="#2B2968"/>
<path d="M76.0521 25.3415C73.842 25.3415 72.1301 23.6368 72.1301 21.5983C72.1301 19.602 73.8401 17.8552 76.0521 17.8552C78.2218 17.8552 79.974 19.5197 79.974 21.5983C79.974 23.7191 78.2218 25.3415 76.0521 25.3415Z" fill="#FF6200"/>
<path d="M121.934 25.3415C119.724 25.3415 118.012 23.6368 118.012 21.5983C118.012 19.602 119.722 17.8552 121.934 17.8552C124.103 17.8552 125.856 19.5197 125.856 21.5983C125.854 23.7191 124.101 25.3415 121.934 25.3415Z" fill="#FF6200"/>
<path d="M164.191 49.3379C161.897 49.3379 159.937 47.5909 159.937 45.3031C159.937 43.0576 161.857 41.186 164.191 41.186C166.444 41.186 168.364 42.9753 168.364 45.261C168.364 47.5467 166.444 49.3379 164.191 49.3379Z" fill="#FF6200"/>
</g>
<defs>
<clipPath id="clip0_2354_132">
<rect width="167.727" height="60" fill="white" transform="translate(0.63623)"/>
</clipPath>
</defs>
</svg>
